<svg width="604" height="612" viewBox="0 0 604 612" fill="none" xmlns="http://www.w3.org/2000/svg">
<path fill-rule="evenodd" clip-rule="evenodd" d="M297.736 158.432C338.357 164.787 378.116 160.34 417.139 173.299C472.647 191.733 541.752 198.159 570.652 249.066C600.016 300.79 579.925 367.182 558.773 422.781C538.404 476.318 508.163 533.878 454.616 554.061C403.359 573.38 351.895 529.318 297.736 521.168C255.037 514.743 212.375 526.115 171.74 511.497C118.392 492.305 55.2077 475.828 30.1623 424.908C4.57928 372.895 24.5166 309.793 46.0605 255.976C66.5129 204.887 96.4923 151.03 147.756 131.161C196.33 112.335 246.274 150.382 297.736 158.432Z" fill="#42E2B8"/>
<path fill-rule="evenodd" clip-rule="evenodd" d="M506.452 214.953C533.374 259.77 562.631 308.793 554.09 360.388C545.201 414.084 504.244 456.585 460.993 489.554C418.157 522.207 366.965 543.002 313.139 544.061C259.865 545.109 207.631 527.347 164.97 495.379C123.721 464.467 84.5214 421.498 80.9123 370.036C77.4974 321.343 133.268 290.34 147.313 243.596C161.037 197.92 123.75 134.806 160.653 104.642C197.332 74.6612 251.18 116.078 298.354 120.136C337.623 123.514 377.658 110.051 413.532 126.396C453.429 144.575 483.86 177.342 506.452 214.953Z" fill="#8884FF"/>
</svg>
